<svg xmlns="http://www.w3.org/2000/svg" width="28" height="27" fill="none" viewBox="0 0 28 27"><path fill="url(#paint0_radial)" d="M0.943359 13.2631C0.943359 20.5774 6.88707 26.5261 14.1951 26.5261C21.5032 26.5261 27.4469 20.5774 27.4469 13.2631C27.4402 5.94887 21.4964 0.00012207 14.1951 0.00012207C6.88707 0.00012207 0.943359 5.94887 0.943359 13.2631Z"/><path fill="url(#paint1_radial)" d="M0.943359 13.2631C0.943359 20.5774 6.88707 26.5261 14.1951 26.5261C21.5032 26.5261 27.4469 20.5774 27.4469 13.2631C27.4402 5.94887 21.4964 0.00012207 14.1951 0.00012207C6.88707 0.00012207 0.943359 5.94887 0.943359 13.2631Z"/><path fill="url(#paint2_radial)" d="M0.943359 13.2631C0.943359 20.5774 6.88707 26.5261 14.1951 26.5261C21.5032 26.5261 27.4469 20.5774 27.4469 13.2631C27.4402 5.94887 21.4964 0.00012207 14.1951 0.00012207C6.88707 0.00012207 0.943359 5.94887 0.943359 13.2631Z"/><defs><radialGradient id="paint0_radial" cx="0" cy="0" r="1" gradientTransform="translate(18.1597 6.46118) scale(19.9547 19.9716)" gradientUnits="userSpaceOnUse"><stop offset=".005" stop-color="#fff"/><stop offset=".458" stop-color="#B7D8C8"/><stop offset=".656" stop-color="#6D9487"/><stop offset="1" stop-color="#4B4C3C"/></radialGradient><radialGradient id="paint1_radial" cx="0" cy="0" r="1" gradientTransform="translate(18.1597 6.46118) scale(19.9547 19.9716)" gradientUnits="userSpaceOnUse"><stop offset=".005" stop-color="#fff"/><stop offset=".458" stop-color="#B5B4C6"/><stop offset=".656" stop-color="#9B8F8F"/><stop offset="1" stop-color="#4B4C3C"/></radialGradient><radialGradient id="paint2_radial" cx="0" cy="0" r="1" gradientTransform="translate(18.1597 6.46118) scale(19.9547 19.9716)" gradientUnits="userSpaceOnUse"><stop offset=".156" stop-color="#DCC8D0"/><stop offset=".302" stop-color="#78C8CF"/><stop offset=".427" stop-color="#4D959E"/><stop offset=".557" stop-color="#305EB9"/><stop offset=".797" stop-color="#311F12"/><stop offset=".906" stop-color="#684232"/><stop offset="1" stop-color="#2D1C13"/></radialGradient></defs></svg>